<?xml version="1.0" standalone="no"?>
<!DOCTYPE svg PUBLIC "-//W3C//DTD SVG 20010904//EN"
 "http://www.w3.org/TR/2001/REC-SVG-20010904/DTD/svg10.dtd">
<svg version="1.0" xmlns="http://www.w3.org/2000/svg"
 width="700.000000pt" height="700.000000pt" viewBox="0 0 700.000000 700.000000"
 preserveAspectRatio="xMidYMid meet">
<metadata>
Created by potrace 1.11, written by Peter Selinger 2001-2013
</metadata>
<g transform="translate(0.000000,700.000000) scale(0.100000,-0.100000)"
fill="#000000" stroke="none">
<path d="M1308 6925 c-2 -2 -160 -5 -353 -8 -342 -5 -352 -5 -417 -30 -98 -36
-171 -83 -252 -162 -92 -91 -164 -210 -193 -320 -3 -11 -8 -83 -11 -160 -8
-185 -9 -5285 0 -5485 5 -126 10 -166 29 -215 79 -209 233 -362 439 -435 51
-18 94 -24 210 -29 164 -6 5125 -8 5410 -1 111 2 207 9 239 18 172 44 343 178
433 342 58 105 70 155 77 325 7 200 8 5275 0 5480 -6 135 -9 158 -36 226 -93
237 -326 427 -548 446 -52 5 -5022 12 -5027 8z m4605 -740 c215 -54 352 -271
350 -550 -2 -157 -60 -333 -138 -418 -43 -47 -125 -98 -199 -126 -113 -42
-302 -22 -405 43 -138 87 -218 250 -226 461 -12 308 138 546 375 594 104 21
147 20 243 -4z m-1196 -8 c29 -7 60 -20 69 -29 15 -15 15 -21 -1 -88 -17 -70
-18 -71 -44 -64 -87 24 -147 32 -231 30 -81 -2 -103 -7 -150 -31 -145 -74
-197 -159 -204 -340 -9 -223 95 -374 284 -414 53 -11 191 -4 205 11 3 3 6 67
8 144 l2 139 -80 1 c-44 1 -84 2 -90 3 -8 1 -12 104 -6 144 0 4 81 7 180 7
l178 0 -3 -232 c-1 -128 -3 -256 -3 -284 -1 -45 -4 -52 -23 -57 -142 -33 -175
-37 -283 -37 -153 0 -208 6 -270 33 -146 62 -236 170 -282 337 -22 81 -24 262
-4 335 58 204 213 354 416 399 79 18 243 14 332 -7z m-3474 -17 c26 -12 69
-43 96 -69 57 -54 76 -106 68 -192 -6 -74 -36 -128 -96 -179 l-50 -42 62 -42
c50 -34 68 -55 96 -107 30 -59 33 -70 29 -135 -6 -88 -35 -151 -97 -212 -85
-84 -147 -98 -431 -97 l-185 0 -1 542 0 543 35 6 c20 3 40 7 46 8 5 2 93 2
195 1 169 -2 189 -4 233 -25z m877 -524 c0 -434 -3 -555 -12 -558 -7 -2 -47
-3 -88 -3 l-75 1 -3 557 -2 557 90 0 90 0 0 -554z m764 521 c148 -253 406
-738 406 -762 0 -8 5 -17 11 -21 8 -4 10 110 7 405 l-4 411 83 0 83 0 0 -167
c1 -494 -1 -936 -4 -942 -6 -9 -169 -7 -183 2 -6 4 -68 112 -138 239 -71 128
-142 258 -158 288 -17 30 -61 116 -99 190 -37 74 -68 128 -69 120 -1 -22 3
-629 5 -739 1 -56 -3 -95 -9 -97 -5 -1 -45 -5 -87 -7 l-78 -3 0 558 0 558 108
0 107 0 19 -33z m-1287 -1370 c12 -13 10 -1227 -2 -1228 -32 -3 -1093 -4
-1105 -1 -14 3 -15 60 -14 485 1 265 4 498 7 518 15 85 52 142 127 192 48 33
52 33 167 36 65 1 119 3 120 4 6 7 693 0 700 -6z m1819 -606 c0 -339 -3 -618
-7 -621 -12 -8 -1648 -4 -1656 4 -7 7 -14 1213 -7 1227 2 3 378 5 836 5 l834
0 0 -615z m1814 -3 c0 -340 -3 -618 -7 -619 -5 0 -379 -2 -831 -2 -540 -1
-826 1 -831 8 -6 8 -8 1200 -2 1226 0 3 377 5 836 5 l835 0 0 -618z m1100 600
c45 -19 95 -69 121 -119 14 -29 21 -67 25 -142 4 -84 9 -919 5 -952 -1 -11
-1096 -13 -1107 -3 -4 5 -6 546 -4 1139 l0 96 463 -2 c383 -2 468 -5 497 -17z
m-4733 -1371 c6 -4 10 -1491 4 -1517 0 -3 -254 -6 -563 -5 l-563 0 -1 755 c0
415 1 760 3 765 4 11 1103 12 1120 2z m1818 -757 l0 -765 -835 0 -835 0 0 762
c0 659 1 763 14 765 8 2 384 3 835 3 l821 0 0 -765z m1810 0 l0 -765 -825 -1
c-454 0 -829 3 -835 7 -7 5 -10 268 -9 761 1 414 2 755 3 758 0 3 376 5 834 5
l832 0 0 -765z m1251 758 c4 -5 7 -349 7 -765 l0 -758 -556 0 -557 -1 0 48 c0
27 -1 352 -1 723 0 371 1 694 1 718 l0 42 549 0 c302 0 553 -3 557 -7z m-4876
-1667 c3 0 5 -281 5 -623 l0 -623 -410 -2 c-226 0 -438 3 -473 8 -79 11 -114
29 -169 87 -46 49 -63 92 -70 177 -8 89 -9 970 -2 975 6 4 1102 5 1119 1z
m1811 -1 c1 -3 2 -285 3 -627 l2 -623 -836 0 -835 0 1 623 c1 342 2 624 3 627
1 7 1661 7 1662 0z m1817 -623 l2 -627 -837 2 -838 3 -1 620 c0 341 1 622 2
625 1 3 377 5 836 5 l833 0 3 -628z m1248 620 c9 -9 8 -814 -1 -962 -7 -111
-24 -162 -75 -213 -64 -67 -56 -66 -567 -70 l-463 -4 0 24 c-1 32 -1 1031 0
1143 l0 90 549 0 c302 0 553 -4 557 -8z"/>
<path d="M5675 6031 c-55 -26 -98 -74 -134 -151 -35 -75 -42 -106 -45 -208 -6
-161 40 -300 122 -372 163 -144 373 -43 432 208 39 168 -13 399 -112 489 -56
52 -187 69 -263 34z"/>
<path d="M943 6053 c-21 -4 -22 -7 -20 -156 l2 -152 63 1 c83 2 144 20 181 53
77 69 64 193 -25 236 -33 16 -152 26 -201 18z"/>
<path d="M924 5458 c2 -84 5 -170 5 -190 l1 -37 83 3 c117 5 182 39 222 116
39 76 -4 183 -89 221 -39 17 -64 22 -179 34 l-47 5 4 -152z"/>
<path d="M2504 3006 c-90 -167 -97 -174 -164 -186 -55 -9 -133 -20 -180 -25
-68 -7 -110 -18 -110 -29 0 -7 35 -44 78 -82 42 -38 99 -89 126 -114 l48 -46
-22 -115 c-12 -62 -24 -138 -27 -167 l-5 -52 28 10 c16 6 91 41 166 77 l136
66 166 -78 c91 -43 169 -76 172 -73 6 7 -22 177 -46 283 l-10 40 125 120 c69
66 125 126 125 132 0 15 -5 16 -192 41 -165 22 -160 19 -218 122 -87 157 -109
195 -118 198 -5 1 -40 -54 -78 -122z"/>
</g>
</svg>
